<svg
  class="img-fluid"
  id="outputsvg"
  xmlns="http://www.w3.org/2000/svg"
  width="1024"
  height="1024"
  viewBox="0 0 10240 10240"
>
  <g
    id="l4dpgZQozkvrT3GKfIqwlN0"
    fill="rgb(251,201,9)"
    style="transform: none;"
  >
    <g style="transform: none;">
      <path
        id="pmSLhYHnx"
        d="M3527 3920 c-52 -16 -234 -118 -772 -433 -264 -154 -270 -160 -263 -283 4 -90 16 -105 143 -178 227 -133 848 -469 898 -486 73 -26 241 -28 311 -4 46 16 787 434 913 516 85 54 93 70 93 172 0 84 -1 86 -34 118 -19 18 -114 79 -213 135 -358 204 -670 377 -747 414 -78 38 -81 39 -190 38 -61 0 -124 -5 -139 -9z"
      >
      </path>
      <path
        id="pHxKklFcp"
        d="M2003 3041 c-60 -29 -732 -418 -841 -488 -86 -55 -102 -77 -102 -142 0 -72 13 -90 98 -139 89 -52 726 -391 876 -467 118 -60 118 -60 250 -60 155 0 182 8 341 96 459 254 674 380 705 414 22 23 25 38 28 109 6 126 29 108 -536 420 -107 59 -272 147 -367 197 -174 89 -174 89 -282 89 -99 0 -113 -3 -170 -29z"
      >
      </path>
      <path
        id="ppfvhU7kC"
        d="M5030 3050 c-81 -33 -881 -487 -946 -536 -48 -37 -64 -72 -64 -139 0 -102 27 -129 240 -245 74 -40 178 -97 230 -125 232 -129 343 -189 458 -247 123 -62 123 -62 236 -66 107 -4 115 -3 184 26 39 16 179 91 309 165 131 74 317 179 413 232 96 53 183 104 193 113 27 24 21 81 -11 118 -207 235 -257 294 -272 324 -10 20 -35 44 -56 56 -22 12 -151 83 -288 159 -343 189 -332 185 -469 184 -85 0 -123 -5 -157 -19z"
      >
      </path>
      <path
        id="pZaZE4O1e"
        d="M3570 2215 c-41 -13 -203 -102 -719 -395 -101 -58 -201 -121 -223 -141 -35 -33 -38 -40 -38 -89 0 -49 3 -56 38 -89 22 -20 90 -62 153 -95 326 -168 409 -211 459 -241 30 -18 136 -75 235 -126 180 -94 180 -94 326 -94 147 0 147 0 290 72 174 87 685 370 725 402 43 34 53 59 54 133 0 85 -10 107 -68 145 -105 68 -899 498 -955 517 -59 20 -213 20 -277 1z"
      >
      </path>
      <path
        id="pNGAwfToT"
        d="M6265 2076 c-60 -35 -240 -136 -400 -225 -159 -89 -302 -175 -317 -192 -25 -26 -28 -36 -28 -103 0 -116 -9 -110 485 -372 480 -254 430 -234 611 -241 145 -5 155 -2 383 124 627 345 739 408 764 431 24 23 27 33 27 92 0 75 -10 90 -87 129 -71 35 -107 29 -248 -45 -270 -140 -360 -150 -504 -56 -44 30 -375 376 -469 493 -39 48 -85 40 -217 -35z"
      >
      </path>
      <path
        id="ptSCWqUIM"
        d="M5100 1411 c-50 -10 -119 -43 -245 -115 -60 -35 -209 -119 -330 -186 -473 -265 -445 -245 -445 -321 0 -82 -37 -58 675 -435 320 -169 320 -169 455 -169 135 0 135 0 295 86 527 285 773 422 793 445 16 19 22 37 22 74 0 26 -3 55 -6 64 -8 21 -106 80 -329 201 -99 54 -211 115 -250 136 -193 107 -394 208 -430 218 -44 12 -150 13 -205 2z"
      >
      </path>
    </g>
  </g>
  <g
    id="l5I34cJIIH4JBpyUi571F26"
    fill="rgb(46,117,239)"
    style="transform: none;"
  >
    <g style="transform: none;">
      <path
        id="puokRLqSX"
        d="M6335 9966 c-22 -8 -51 -28 -64 -44 -22 -27 -249 -433 -332 -593 -67 -130 -63 -253 10 -366 40 -61 169 -212 591 -688 304 -344 321 -360 384 -369 78 -12 134 2 175 43 38 38 315 563 345 654 25 75 21 201 -8 262 -14 29 -105 144 -217 274 -107 124 -300 348 -430 500 -129 152 -254 289 -276 305 -50 35 -119 43 -178 22z"
      >
      </path>
      <path
        id="pWoW46x9r"
        d="M5704 8860 c-17 -11 -43 -37 -56 -58 -53 -78 -354 -640 -371 -692 -26 -74 -19 -170 16 -242 33 -67 72 -114 503 -598 489 -551 455 -520 572 -520 72 0 74 0 118 43 43 41 131 199 337 602 72 140 72 140 72 240 0 149 12 130 -365 560 -135 154 -267 305 -295 335 -228 256 -284 314 -317 331 -53 27 -171 26 -214 -1z"
      >
      </path>
      <path
        id="pc1LiqGuP"
        d="M7687 8307 c-8 -13 -40 -73 -71 -135 -67 -133 -70 -165 -24 -223 27 -33 37 -39 70 -39 37 0 38 -1 38 -36 0 -35 0 -35 -33 -10 -27 21 -45 26 -90 26 -77 0 -91 -21 -85 -125 5 -75 5 -75 -26 -75 -17 0 -42 -7 -54 -16 -19 -13 -22 -24 -22 -91 0 -90 24 -149 74 -188 43 -33 116 -35 147 -4 19 19 21 30 17 105 -4 84 -4 84 38 84 33 0 46 5 58 22 19 26 21 122 5 165 -10 28 -10 28 13 5 17 -15 37 -22 65 -22 40 0 40 0 107 129 80 157 84 186 30 249 -29 34 -42 42 -70 42 -33 0 -34 1 -34 40 0 32 -7 48 -36 80 -44 48 -92 55 -117 17z"
      >
      </path>
      <path
        id="pgVthIQ6a"
        d="M7972 7785 c-40 -80 -72 -157 -72 -171 0 -14 16 -44 37 -70 31 -37 43 -44 73 -44 35 0 36 -1 32 -35 -4 -35 -4 -35 -34 -10 -23 20 -41 25 -82 25 -79 0 -90 -17 -84 -125 4 -85 4 -85 -38 -85 -56 0 -74 -25 -74 -99 0 -78 19 -130 66 -178 39 -41 43 -43 101 -43 81 0 87 7 81 120 -4 90 -4 90 38 90 57 0 74 24 74 107 0 34 -5 74 -10 90 -10 28 -10 28 14 1 19 -22 34 -28 64 -28 39 0 39 0 111 139 86 168 88 188 30 255 -33 38 -47 46 -75 46 -33 0 -34 1 -34 40 0 32 -7 48 -36 80 -30 33 -43 40 -73 40 -37 0 -37 0 -109 -145z"
      >
      </path>
      <path
        id="pPyHDQWm0"
        d="M5095 7720 c-47 -19 -102 -100 -245 -360 -228 -416 -224 -408 -229 -514 -2 -50 2 -106 8 -128 20 -67 61 -114 823 -968 116 -130 170 -176 215 -184 66 -10 143 -6 174 10 43 22 83 90 269 457 165 325 165 325 168 425 5 147 -12 179 -230 423 -147 165 -334 376 -452 509 -153 174 -285 307 -321 325 -35 16 -146 20 -180 5z"
      >
      </path>
      <path
        id="pzRkxUAr"
        d="M8340 7370 c-85 -169 -89 -199 -34 -260 31 -34 43 -40 75 -40 39 0 39 0 39 -44 0 -43 0 -43 -36 -10 -32 31 -41 34 -94 34 -80 0 -95 -21 -87 -118 2 -37 8 -75 12 -84 6 -16 1 -18 -43 -18 -60 0 -73 -13 -80 -79 -6 -70 21 -154 67 -204 34 -36 44 -41 95 -45 82 -7 96 9 96 105 0 41 -5 83 -10 94 -10 18 -7 19 38 19 68 0 82 18 82 104 0 36 -7 83 -15 104 -15 37 -15 37 18 -1 26 -30 39 -37 69 -37 38 0 38 0 108 140 85 170 89 199 34 266 -32 38 -41 44 -75 44 -39 0 -39 0 -39 43 -1 34 -8 50 -39 85 -32 35 -45 42 -75 42 -36 0 -36 0 -106 -140z"
      >
      </path>
      <path
        id="pr1mcjlb8"
        d="M7132 7064 c-109 -54 -238 -249 -278 -420 -26 -107 -26 -325 -2 -404 24 -77 116 -188 160 -192 26 -2 33 -9 44 -41 8 -21 36 -67 65 -103 44 -55 55 -64 83 -64 30 0 34 -4 45 -42 24 -79 118 -188 163 -188 20 0 28 -5 28 -17 0 -10 13 -41 30 -69 34 -60 80 -84 163 -84 112 0 208 79 290 238 67 129 97 242 104 387 9 197 -30 323 -112 362 -24 12 -35 23 -35 39 0 25 -129 169 -161 179 -11 4 -19 15 -19 28 0 25 -139 182 -170 192 -12 4 -20 15 -20 27 0 28 -126 167 -167 184 -55 23 -151 18 -211 -12z"
      >
      </path>
      <path
        id="pfarzxe8i"
        d="M8918 6930 c-29 -29 -276 -522 -332 -662 -47 -120 -32 -258 40 -356 46 -63 776 -882 837 -939 56 -53 56 -53 146 -53 135 0 125 -12 316 410 134 297 145 327 145 409 0 38 -7 87 -15 110 -25 71 -27 73 -441 552 -82 96 -217 251 -298 346 -81 95 -162 182 -180 193 -26 16 -50 20 -110 20 -73 0 -79 -2 -108 -30z"
      >
      </path>
      <path
        id="pWMc7iOp9"
        d="M6486 5988 c-8 -13 -44 -79 -80 -147 -80 -151 -85 -189 -33 -239 26 -25 41 -32 74 -32 41 0 41 0 36 -42 -3 -39 0 -47 37 -86 38 -39 46 -43 82 -40 41 3 41 3 114 138 62 114 74 142 74 182 0 41 -5 54 -36 88 -29 32 -43 40 -70 40 -32 0 -34 2 -34 34 0 50 -69 126 -116 126 -24 0 -38 -6 -48 -22z"
      >
      </path>
      <path
        id="pITmQJVQe"
        d="M8414 5826 c-17 -8 -43 -29 -57 -47 -33 -45 -324 -647 -348 -722 -35 -109 -20 -213 44 -305 44 -64 649 -750 801 -910 49 -51 102 -100 117 -108 37 -19 133 -18 172 1 44 22 54 38 147 241 46 98 114 247 152 329 86 186 102 242 96 355 -6 134 18 102 -523 711 -300 337 -387 430 -425 450 -41 23 -130 25 -176 5z"
      >
      </path>
      <path
        id="pEELDBEnp"
        d="M6786 5461 c-92 -181 -96 -208 -38 -264 29 -28 46 -37 73 -37 34 0 35 -1 31 -34 -3 -29 3 -43 34 -80 35 -42 42 -46 84 -46 45 0 45 0 118 145 87 175 90 199 33 263 -32 35 -45 42 -75 42 -35 0 -36 1 -36 36 0 26 -10 47 -36 80 -32 38 -42 44 -75 44 -38 0 -38 0 -113 -149z"
      >
      </path>
      <path
        id="p1FTZE4veD"
        d="M6283 5514 c-23 -23 -25 -30 -21 -97 3 -40 8 -80 12 -89 7 -16 2 -18 -42 -18 -71 0 -92 -28 -92 -119 0 -78 23 -135 69 -174 39 -33 70 -41 119 -34 59 10 75 38 70 127 -3 41 -8 82 -11 90 -6 13 0 15 37 12 38 -3 49 0 70 22 23 22 26 33 26 96 0 87 -15 124 -69 173 -36 32 -47 37 -91 37 -41 0 -56 -5 -77 -26z"
      >
      </path>
      <path
        id="p2Zqu8QK4"
        d="M7157 5055 c-91 -183 -94 -204 -39 -258 31 -30 45 -37 77 -37 40 0 40 0 37 -42 -2 -36 3 -48 28 -75 26 -29 36 -33 83 -33 54 0 54 0 120 140 83 174 85 198 24 258 -32 32 -51 42 -75 42 -30 0 -32 2 -32 38 0 31 -7 45 -43 80 -31 31 -51 42 -73 42 -29 0 -33 -6 -107 -155z"
      >
      </path>
      <path
        id="p146svV0iI"
        d="M6667 5118 c-37 -29 -47 -112 -23 -180 14 -38 14 -38 -35 -38 -61 0 -85 -21 -94 -84 -11 -73 11 -144 60 -193 41 -42 44 -43 107 -43 49 0 69 4 79 17 15 18 19 139 6 186 -7 27 -7 27 41 27 71 0 87 21 87 114 -1 81 -24 136 -75 180 -25 21 -42 26 -84 26 -29 0 -60 -6 -69 -12z"
      >
      </path>
      <path
        id="pdG6N7zzW"
        d="M7029 4703 c-16 -18 -20 -153 -6 -190 8 -21 6 -23 -31 -23 -25 0 -49 -8 -66 -21 -24 -19 -26 -26 -26 -98 0 -135 60 -211 166 -211 45 0 56 4 73 26 26 32 29 126 7 179 -15 35 -15 35 39 35 72 0 85 18 85 118 0 83 -20 133 -70 176 -27 22 -41 26 -95 26 -46 0 -66 -4 -76 -17z"
      >
      </path>
      <path
        id="pGIos1qYt"
        d="M7804 4618 c-30 -26 -71 -101 -200 -364 -210 -427 -207 -417 -207 -530 -1 -149 -16 -128 453 -649 576 -641 516 -585 629 -585 91 0 127 18 164 82 49 83 325 704 337 757 17 74 8 196 -19 249 -28 55 -81 119 -286 347 -94 105 -240 269 -324 365 -188 213 -297 327 -333 346 -16 8 -56 14 -102 14 -71 0 -78 -2 -112 -32z"
      >
      </path>
    </g>
  </g>
  <g
    id="l3w8L3baFfKP8ksDDWkOi3A"
    fill="rgb(252,124,2)"
    style="transform: none;"
  >
    <g style="transform: none;">
      <path
        id="pmSDixhwz"
        d="M5944 10011 c-23 -10 -83 -45 -135 -78 -52 -33 -263 -163 -469 -289 -275 -168 -389 -244 -430 -284 -40 -40 -79 -99 -146 -220 -51 -91 -142 -254 -203 -362 -107 -191 -111 -200 -111 -258 0 -60 0 -60 47 -60 46 0 46 0 -66 -68 -139 -84 -172 -110 -210 -166 -35 -50 -132 -222 -315 -553 -126 -230 -127 -231 -124 -290 3 -58 3 -58 57 -61 54 -3 54 -3 -52 -67 -187 -112 -170 -91 -364 -440 -77 -138 -175 -313 -219 -390 -77 -138 -79 -141 -79 -210 0 -70 0 -70 50 -73 42 -2 59 3 105 31 30 18 181 110 335 203 633 385 717 438 757 484 36 41 239 396 404 707 61 115 65 125 62 180 -3 58 -3 58 -65 63 -63 5 -63 5 65 83 192 117 195 120 322 352 293 533 320 586 326 628 9 64 -6 85 -61 89 -45 3 -45 3 72 73 183 110 146 58 481 670 117 215 140 277 112 310 -17 21 -96 19 -146 -4z"
      >
      </path>
    </g>
  </g>
  <g
    id="l5l8FjVjFns3o3lrun8GVH2"
    fill="rgb(229,46,34)"
    style="transform: none;"
  >
    <g style="transform: none;">
      <path
        id="pVjH5logi"
        d="M3429 8937 c-20 -7 -146 -83 -280 -169 -134 -85 -338 -213 -453 -284 -255 -158 -283 -181 -325 -274 -40 -86 -43 -127 -62 -746 -13 -404 -13 -411 7 -450 26 -49 72 -74 142 -74 64 0 82 8 317 153 473 290 677 421 718 461 103 100 106 118 113 796 5 481 4 558 -9 574 -18 25 -116 32 -168 13z"
      >
      </path>
      <path
        id="p16MdVK55v"
        d="M1915 7987 c-49 -29 -178 -109 -285 -177 -107 -68 -256 -161 -330 -208 -238 -149 -259 -167 -291 -237 -10 -22 -21 -70 -24 -105 -10 -112 -35 -808 -35 -973 0 -159 0 -159 29 -188 25 -24 38 -29 79 -29 58 0 84 13 332 165 641 394 670 414 713 493 50 92 55 145 68 719 13 531 13 533 -8 560 -18 25 -27 28 -89 31 -68 3 -71 2 -159 -51z"
      >
      </path>
      <path
        id="p8Sf0v5Yk"
        d="M3100 7034 c-271 -92 -585 -356 -652 -549 -23 -66 -24 -171 -2 -183 15 -8 15 -12 -1 -43 -25 -47 -35 -219 -13 -219 13 0 12 -8 -3 -52 -23 -68 -26 -183 -4 -196 14 -7 14 -12 0 -45 -17 -41 -20 -158 -5 -187 5 -10 24 -23 41 -29 41 -14 167 -14 227 0 75 18 227 94 344 171 105 70 108 73 108 109 0 20 -7 56 -16 80 -12 34 -14 65 -9 139 5 75 3 103 -9 132 -20 46 -21 114 -3 121 8 3 39 50 70 105 44 77 57 110 57 141 0 36 3 41 23 41 17 0 32 18 70 84 27 48 47 96 47 114 0 21 6 31 19 35 43 11 39 174 -6 227 -24 29 -27 30 -116 30 -72 0 -109 -6 -167 -26z"
      >
      </path>
      <path
        id="p16w14pB9l"
        d="M4205 6536 c-27 -12 -169 -95 -315 -183 -641 -388 -660 -401 -679 -470 -31 -112 -2 -186 133 -333 22 -24 29 -35 15 -22 -18 16 -38 22 -71 22 -43 0 -79 -20 -459 -247 -240 -145 -434 -268 -465 -296 -67 -61 -102 -132 -114 -234 -12 -107 -35 -1077 -26 -1135 13 -85 69 -128 168 -128 42 0 69 8 128 39 112 58 859 499 901 532 21 16 51 50 67 77 58 90 61 119 69 649 6 482 6 482 -87 590 -51 59 -77 92 -58 73 20 -19 185 -204 368 -410 182 -206 353 -392 378 -413 59 -47 95 -57 204 -57 115 0 87 -15 853 439 105 62 203 124 219 139 42 40 56 81 56 172 0 128 9 115 -424 600 -160 178 -327 365 -372 415 -101 113 -176 182 -209 195 -15 6 -72 10 -128 10 -86 0 -110 -4 -152 -24z"
      >
      </path>
      <path
        id="pUxFaaOtc"
        d="M1675 6179 c-88 -56 -163 -106 -167 -113 -13 -19 -9 -156 3 -156 8 0 8 -4 0 -14 -7 -9 -11 -41 -9 -83 3 -68 3 -68 48 -71 42 -2 57 5 202 95 157 98 157 98 157 270 0 173 0 173 -37 173 -30 0 -68 -20 -197 -101z"
      >
      </path>
      <path
        id="p5i8vILCi"
        d="M1291 5901 c-34 -32 -70 -103 -71 -138 0 -23 0 -23 -21 -2 -18 18 -30 21 -71 17 -57 -6 -108 -47 -139 -113 -21 -46 -26 -154 -7 -173 18 -18 129 -15 156 3 26 19 67 88 76 129 5 22 10 26 19 17 6 -6 38 -11 72 -11 56 0 64 3 92 33 50 52 63 88 63 170 0 43 -5 78 -12 85 -7 7 -38 12 -69 12 -49 0 -61 -4 -88 -29z"
      >
      </path>
      <path
        id="pvMiw8Pcq"
        d="M1660 5717 c-165 -103 -165 -103 -168 -185 -2 -60 0 -82 10 -82 9 0 9 -3 0 -12 -7 -7 -12 -43 -12 -90 0 -78 0 -78 43 -78 36 0 66 15 202 98 160 98 160 98 161 191 1 51 5 95 8 98 3 4 6 42 6 85 0 78 0 78 -42 78 -37 -1 -68 -16 -208 -103z"
      >
      </path>
      <path
        id="pUxGmRV48"
        d="M1280 5444 c-34 -29 -64 -81 -75 -132 -7 -33 -7 -33 -22 -13 -18 26 -79 28 -128 5 -77 -36 -128 -181 -95 -268 9 -24 14 -26 74 -26 59 0 67 3 97 32 36 37 68 101 69 138 1 22 2 23 11 8 8 -14 24 -18 78 -18 63 0 69 2 99 33 17 17 38 49 46 69 19 45 21 169 4 186 -7 7 -38 12 -69 12 -47 0 -63 -5 -89 -26z"
      >
      </path>
      <path
        id="poHLu2bDW"
        d="M1698 5272 c-69 -42 -147 -89 -172 -104 -46 -28 -46 -28 -46 -108 0 -68 2 -80 17 -80 14 0 13 -3 -5 -20 -19 -18 -22 -32 -22 -95 0 -75 0 -75 46 -75 40 0 66 12 209 97 163 96 163 96 170 176 6 66 5 83 -7 91 -13 10 -13 13 -2 24 10 9 14 38 14 92 0 80 0 80 -37 80 -30 0 -66 -17 -165 -78z"
      >
      </path>
      <path
        id="piXSyKPo6"
        d="M1266 4970 c-57 -50 -77 -105 -74 -197 3 -78 3 -78 76 -81 71 -3 74 -2 103 29 47 50 62 88 67 165 6 92 -12 114 -88 114 -41 0 -55 -5 -84 -30z"
      >
      </path>
      <path
        id="p13uyYpgDU"
        d="M5450 4737 c-181 -110 -185 -113 -188 -148 -3 -31 2 -41 38 -72 35 -33 46 -37 92 -37 40 0 49 -3 40 -12 -24 -24 -14 -85 19 -123 28 -32 36 -35 85 -35 51 0 66 7 229 102 175 102 175 102 175 143 0 33 -7 50 -36 83 -30 36 -41 42 -75 42 -39 0 -39 0 -39 42 0 36 -6 48 -42 85 -64 66 -78 62 -298 -70z"
      >
      </path>
      <path
        id="p16b4pQaXJ"
        d="M1001 4801 c-45 -45 -71 -113 -71 -187 0 -65 21 -84 93 -84 63 0 97 24 131 92 21 41 26 67 26 123 0 42 -5 76 -12 83 -7 7 -38 12 -70 12 -54 0 -61 -3 -97 -39z"
      >
      </path>
      <path
        id="pXdMglMk6"
        d="M1855 4716 c-24 -10 -322 -189 -755 -452 -104 -63 -188 -170 -209 -265 -5 -24 -15 -156 -21 -294 -6 -137 -17 -393 -25 -568 -16 -338 -14 -383 17 -434 19 -33 21 -33 95 -33 75 0 75 0 316 142 714 418 710 415 756 506 39 77 40 92 67 1032 7 253 1 295 -49 348 -29 30 -35 32 -96 32 -37 -1 -79 -7 -96 -14z"
      >
      </path>
      <path
        id="pgmuMxCjB"
        d="M5103 4474 c-12 -3 -33 -17 -47 -31 -23 -23 -26 -34 -26 -95 0 -69 0 -69 -30 -53 -39 20 -161 20 -200 0 -40 -21 -50 -43 -50 -112 0 -40 6 -68 20 -90 32 -53 63 -66 161 -71 88 -4 88 -4 119 27 30 30 31 34 28 101 -3 71 -1 79 19 59 7 -7 56 -14 110 -17 94 -4 99 -3 126 21 25 24 27 32 27 97 0 70 0 72 -44 118 -44 47 -44 47 -118 48 -40 1 -83 0 -95 -2z"
      >
      </path>
      <path
        id="pikhhwvfz"
        d="M5840 4321 c-185 -109 -185 -109 -188 -148 -2 -32 2 -43 27 -67 24 -23 43 -30 93 -36 43 -4 57 -9 46 -14 -32 -15 -23 -76 18 -124 33 -39 39 -42 82 -41 41 0 69 14 227 107 172 103 180 109 183 141 3 28 -3 41 -39 77 -35 36 -50 44 -79 44 -35 0 -35 1 -32 38 2 31 -3 44 -38 85 -63 72 -77 69 -300 -62z"
      >
      </path>
      <path
        id="p12JVftu7B"
        d="M5438 4030 c-29 -29 -30 -34 -26 -100 4 -69 4 -69 -17 -50 -18 17 -36 20 -108 20 -82 0 -89 -2 -119 -29 -31 -27 -33 -34 -33 -94 0 -114 53 -157 192 -157 71 0 85 3 109 23 22 19 28 34 32 79 2 30 -1 64 -7 75 -10 20 -10 20 26 2 28 -14 59 -19 121 -19 75 0 85 2 107 25 22 21 25 33 25 96 0 71 0 72 -44 115 -43 44 -43 44 -135 44 -90 0 -93 -1 -123 -30z"
      >
      </path>
      <path
        id="p9DPwIcAn"
        d="M6315 3966 c-38 -24 -118 -71 -177 -106 -104 -61 -108 -65 -108 -98 0 -22 9 -48 26 -69 24 -32 28 -33 92 -33 50 -1 63 -3 50 -11 -30 -17 -23 -74 14 -120 29 -36 35 -39 82 -39 46 0 68 10 229 101 177 100 177 100 177 136 0 26 -9 48 -36 79 -31 38 -40 44 -75 44 -39 0 -39 0 -39 43 0 37 -6 48 -38 80 -54 53 -102 51 -197 -7z"
      >
      </path>
      <path
        id="p3EJ7TmDb"
        d="M5833 3630 c-35 -21 -48 -61 -41 -129 3 -39 3 -39 -24 -25 -37 19 -170 19 -207 -1 -36 -18 -41 -32 -41 -106 0 -117 41 -149 188 -149 80 0 91 2 110 23 18 19 22 35 22 90 0 67 0 68 23 55 13 -7 60 -12 115 -13 90 0 94 1 118 28 20 23 24 39 24 88 0 67 -16 107 -56 138 -38 30 -183 30 -231 1z"
      >
      </path>
      <path
        id="p4wBqdFf3"
        d="M7030 3441 c-57 -19 -266 -132 -742 -403 -277 -157 -283 -163 -283 -283 0 -73 3 -86 27 -121 29 -40 186 -219 508 -575 317 -351 353 -389 409 -427 53 -36 55 -37 165 -40 107 -4 116 -3 187 27 69 29 624 325 791 422 132 77 165 131 155 254 -8 103 26 60 -539 690 -201 226 -384 421 -405 435 -34 22 -50 25 -143 27 -58 1 -116 -2 -130 -6z"
      >
      </path>
    </g>
  </g>
  <g
    id="l1dhgLaebpL0vJqeTUTZOx4"
    fill="rgb(0,8,15)"
    style="transform: none;"
  >
    <g style="transform: none;">
      <path
        id="pPBY1Moz6"
        d="M5965 10066 c-47 -17 -88 -41 -265 -151 -271 -168 -631 -389 -700 -431 -135 -81 -149 -100 -381 -511 -90 -161 -167 -293 -172 -293 -4 0 -130 73 -280 162 -149 89 -301 175 -337 192 -90 41 -160 41 -255 -1 -39 -18 -94 -37 -123 -43 -52 -12 -101 -41 -517 -305 -93 -59 -208 -131 -255 -160 -151 -93 -204 -127 -249 -163 -47 -38 -121 -144 -121 -173 0 -13 -12 -19 -50 -24 -27 -4 -81 -22 -120 -41 -40 -19 -84 -34 -98 -34 -39 0 -110 -36 -252 -127 -69 -44 -242 -153 -385 -242 -328 -206 -327 -205 -374 -256 -62 -68 -91 -134 -101 -233 -12 -118 -44 -981 -38 -1040 3 -26 12 -63 21 -82 9 -19 19 -66 23 -103 4 -42 16 -86 30 -114 24 -45 24 -45 -1 -75 -41 -49 -83 -139 -94 -204 -11 -66 -32 -615 -34 -914 -2 -163 1 -200 14 -225 11 -19 18 -63 21 -120 3 -64 11 -105 27 -142 23 -53 23 -53 -8 -101 -39 -62 -57 -113 -65 -187 -11 -106 -48 -1027 -44 -1100 2 -46 11 -86 26 -116 16 -33 22 -63 22 -110 0 -88 36 -160 104 -209 27 -19 77 -60 111 -90 44 -39 125 -89 276 -169 118 -63 291 -156 385 -207 418 -226 483 -252 606 -241 51 5 58 3 64 -15 10 -33 84 -108 129 -130 22 -12 63 -42 91 -67 36 -33 163 -106 455 -261 640 -339 617 -329 752 -331 62 0 62 0 92 -47 19 -30 53 -62 93 -88 35 -23 78 -55 95 -72 18 -17 127 -81 242 -142 116 -62 318 -170 450 -240 132 -71 269 -138 305 -150 87 -29 207 -25 295 11 109 45 908 490 948 528 21 20 68 56 105 81 37 25 77 61 90 80 23 35 23 35 127 40 102 6 107 7 217 63 62 31 181 94 263 139 83 46 256 142 385 213 162 89 252 145 290 180 30 28 78 65 105 83 90 56 122 120 132 263 3 48 9 92 12 97 3 5 89 53 191 106 210 110 263 146 303 203 15 22 93 184 173 359 272 596 293 646 305 731 10 73 13 80 61 132 54 59 61 72 237 459 225 492 252 558 258 619 5 54 10 62 60 111 67 66 71 76 352 699 124 277 134 308 129 413 -3 73 -9 94 -38 148 -18 34 -67 102 -109 151 -42 48 -223 258 -402 467 -179 208 -346 398 -371 421 -47 42 -97 73 -120 73 -7 0 -40 14 -73 32 -46 24 -76 32 -132 36 -73 5 -73 5 -66 91 10 147 -22 219 -173 393 -45 51 -231 266 -414 478 -183 212 -347 397 -364 411 -73 62 -233 114 -327 107 -32 -2 -59 -4 -59 -4 0 1 9 25 20 54 26 69 26 164 0 235 -26 70 -58 112 -271 358 -97 112 -280 326 -407 474 -235 274 -294 329 -360 341 -20 4 -62 18 -92 33 -52 24 -65 26 -210 27 -95 1 -167 -3 -185 -10z m94 -80 c15 -18 14 -21 -114 -256 -250 -457 -290 -526 -325 -560 -20 -19 -108 -78 -196 -130 -87 -52 -258 -155 -379 -230 -541 -336 -514 -320 -544 -320 -44 0 -25 53 90 258 61 108 152 271 203 362 67 121 106 180 146 220 41 40 155 116 430 284 206 126 417 256 469 289 146 92 197 111 220 83z m425 -74 c22 -15 146 -151 275 -303 130 -152 323 -376 430 -500 112 -130 203 -245 217 -274 28 -60 31 -132 8 -202 -30 -91 -307 -616 -345 -654 -59 -59 -142 -58 -206 3 -20 18 -151 164 -293 323 -581 656 -619 704 -639 797 -20 93 -16 103 212 517 74 134 145 257 158 273 27 32 93 60 124 52 11 -3 38 -18 59 -32z m-1036 -999 c17 -30 19 -26 -318 -638 -94 -171 -127 -219 -172 -256 -18 -14 -136 -89 -263 -166 -126 -77 -364 -222 -527 -322 -319 -196 -349 -208 -356 -148 -3 28 88 202 330 631 135 239 135 238 340 360 73 44 299 183 502 309 204 126 379 233 390 237 34 14 64 11 74 -7z m-1879 -21 c19 -25 8 -1035 -13 -1134 -30 -139 -64 -172 -384 -371 -672 -419 -681 -423 -737 -413 -47 9 -92 55 -101 103 -7 37 11 653 26 895 7 124 11 144 41 208 42 93 70 116 325 274 115 71 319 199 453 284 134 86 260 161 280 169 43 15 91 9 110 -15z m2319 -61 c33 -17 89 -75 317 -331 133 -148 544 -620 576 -660 64 -80 83 -127 84 -205 0 -67 -3 -76 -72 -210 -293 -576 -339 -645 -425 -645 -50 0 -90 22 -149 82 -50 51 -719 802 -801 901 -75 88 -106 143 -120 208 -9 46 -8 62 8 109 18 53 320 615 372 692 50 76 132 99 210 59z m1922 -628 c0 -27 -126 -258 -142 -261 -8 -1 -29 16 -48 39 -33 42 -33 42 14 138 26 53 59 116 73 140 26 44 26 44 64 3 22 -23 39 -49 39 -59z m104 -105 c20 -23 36 -46 36 -51 0 -21 -134 -267 -145 -267 -17 0 -75 67 -75 87 0 19 132 273 142 273 3 0 23 -19 42 -42z m-5781 -120 c20 -27 20 -32 8 -532 -13 -543 -19 -598 -68 -688 -36 -66 -85 -104 -335 -259 -562 -349 -647 -399 -680 -399 -11 0 -33 13 -49 29 -29 29 -29 29 -29 158 0 142 26 841 35 943 3 35 14 83 24 105 32 70 53 88 291 237 74 47 223 140 330 208 333 211 370 231 414 228 29 -2 44 -10 59 -30z m5991 -118 c20 -22 36 -47 36 -56 0 -25 -132 -274 -145 -274 -6 0 -27 19 -46 43 -36 42 -36 42 34 185 39 78 74 142 78 142 4 0 23 -18 43 -40z m-492 -22 c35 -24 78 -109 78 -153 0 -41 -25 -75 -55 -75 -33 0 -94 55 -116 105 -49 106 10 183 93 123z m-2824 -91 c4 -31 -37 -112 -276 -542 -83 -148 -168 -290 -190 -315 -40 -46 -124 -99 -757 -484 -154 -93 -305 -185 -335 -203 -72 -44 -95 -41 -94 12 0 31 19 73 79 180 43 77 141 252 218 390 76 137 153 268 169 291 35 49 73 77 223 166 108 64 274 166 570 348 329 203 307 191 350 188 35 -3 40 -6 43 -31z m3484 -79 c19 -28 19 -28 -53 -168 -39 -77 -77 -140 -83 -139 -6 0 -28 21 -49 46 -38 45 -38 45 7 126 24 45 58 111 76 146 31 63 31 63 57 40 14 -13 34 -36 45 -51z m-3047 17 c36 -18 168 -151 321 -325 118 -133 305 -344 452 -509 208 -233 236 -281 230 -394 -4 -68 -9 -81 -168 -395 -91 -179 -182 -351 -202 -383 -48 -75 -84 -94 -161 -85 -66 9 -103 38 -235 186 -756 846 -800 898 -822 965 -7 20 -10 65 -8 100 5 74 15 96 228 485 143 260 198 341 245 360 32 14 84 11 120 -5z m2281 -57 c68 -60 96 -166 54 -208 -26 -26 -46 -25 -86 5 -68 52 -100 186 -52 219 32 22 42 20 84 -16z m967 -194 c20 -23 37 -48 37 -55 0 -25 -133 -279 -145 -279 -15 0 -85 75 -85 90 0 19 141 291 149 288 4 -2 24 -22 44 -44z m-507 -16 c67 -59 94 -161 56 -208 -50 -62 -172 56 -172 166 0 76 55 95 116 42z m658 -152 c20 -24 36 -49 36 -55 0 -17 -139 -291 -148 -291 -11 0 -82 86 -82 100 0 18 140 290 149 290 5 0 25 -20 45 -44z m-768 -58 c46 -41 73 -99 74 -158 0 -54 -13 -70 -54 -70 -58 0 -136 110 -136 191 0 35 27 69 55 69 13 0 41 -15 61 -32z m-544 -170 c13 -9 52 -48 87 -87 63 -71 63 -71 0 -71 -82 0 -133 -25 -201 -99 -71 -77 -122 -167 -160 -281 -28 -85 -32 -108 -32 -220 -1 -69 3 -142 8 -162 13 -59 -14 -49 -79 30 -74 89 -90 141 -89 292 2 143 25 237 91 362 88 167 204 264 305 255 26 -2 57 -11 70 -19z m-3979 -37 c27 -33 42 -108 27 -145 -9 -25 -11 -25 -92 -19 -72 5 -93 2 -161 -21 -214 -72 -460 -251 -588 -426 -26 -35 -50 -59 -59 -58 -40 8 -13 129 52 227 146 222 532 470 735 471 55 0 64 -3 86 -29z m4993 -6 c17 -13 44 -48 58 -77 62 -125 2 -217 -89 -136 -67 59 -103 165 -71 213 21 32 59 33 102 0z m760 -85 c18 -11 99 -98 180 -193 81 -95 216 -250 298 -346 414 -479 416 -481 441 -552 32 -90 24 -118 -130 -459 -135 -299 -162 -351 -196 -382 -25 -24 -38 -28 -90 -28 -59 0 -61 1 -116 53 -61 57 -791 876 -837 939 -38 53 -66 129 -66 184 0 60 27 125 191 461 82 169 150 295 167 313 25 25 39 30 78 30 29 0 59 -7 80 -20z m-1572 -101 c19 -17 58 -57 86 -89 51 -59 51 -59 -12 -57 -47 1 -73 -5 -105 -21 -172 -90 -317 -427 -284 -664 6 -41 13 -82 17 -91 4 -13 1 -17 -14 -17 -25 0 -116 111 -139 172 -13 33 -17 74 -17 178 1 119 4 145 28 220 80 245 219 400 358 400 39 0 54 -6 82 -31z m703 -35 c71 -54 108 -188 64 -228 -47 -43 -137 27 -166 129 -32 108 21 161 102 99z m-4903 -2 c2 -4 -16 -44 -41 -88 -46 -80 -46 -80 -121 -97 -97 -22 -275 -110 -377 -186 -105 -80 -231 -205 -275 -274 -22 -35 -42 -56 -54 -57 -17 0 -18 6 -13 65 10 101 51 169 182 301 205 206 454 342 627 344 37 0 69 -3 72 -8z m4355 -157 c16 -8 59 -47 96 -87 68 -73 68 -73 -2 -79 -83 -6 -123 -28 -188 -102 -52 -60 -136 -224 -160 -312 -23 -84 -31 -269 -15 -334 7 -29 9 -55 6 -58 -16 -16 -124 116 -145 177 -86 253 65 688 274 786 58 27 94 30 134 9z m-4489 -91 c0 -3 -25 -50 -56 -105 -56 -98 -56 -99 -127 -133 -133 -64 -286 -173 -392 -280 -55 -56 -111 -120 -125 -143 -28 -49 -53 -52 -58 -9 -17 149 218 420 504 581 112 63 254 113 254 89z m1255 -4 c33 -13 108 -82 209 -195 45 -50 212 -237 372 -415 414 -464 424 -477 424 -570 0 -61 -18 -106 -56 -142 -16 -15 -114 -77 -219 -139 -728 -431 -743 -439 -823 -439 -78 0 -119 14 -174 57 -45 37 -829 913 -902 1009 -46 60 -60 111 -46 164 19 72 35 82 680 473 333 201 345 207 437 207 39 0 83 -4 98 -10z m3438 -127 c101 -51 135 -290 71 -509 -32 -111 -103 -250 -160 -313 -47 -52 -131 -101 -173 -101 -53 1 -105 34 -133 87 -96 176 -35 532 127 735 89 114 177 147 268 101z m-6013 -197 c0 -54 0 -54 -165 -155 -90 -55 -169 -101 -175 -101 -11 0 -14 79 -2 96 8 13 323 214 335 214 4 0 7 -24 7 -54z m1180 9 c0 -20 6 -50 14 -68 9 -24 12 -61 8 -129 -3 -74 -1 -107 13 -148 10 -29 13 -55 9 -59 -146 -106 -351 -217 -446 -240 -92 -22 -188 -9 -208 29 -69 129 188 431 514 606 44 24 84 44 89 44 4 0 7 -16 7 -35z m-1180 -187 c0 -53 0 -53 -152 -147 -84 -52 -162 -95 -173 -95 -16 -1 -21 6 -23 41 -3 41 -2 43 50 76 107 70 283 177 290 177 5 0 8 -24 8 -52z m4735 -147 c-3 -9 -38 -73 -76 -143 -46 -83 -76 -128 -87 -128 -18 0 -82 58 -82 75 0 11 117 238 147 285 16 24 16 24 60 -24 28 -32 42 -55 38 -65z m-5197 17 c17 -17 15 -93 -4 -131 -28 -56 -74 -97 -109 -97 -40 0 -55 16 -55 60 1 105 116 220 168 168z m5306 -108 c20 -22 36 -48 36 -57 0 -22 -142 -284 -156 -290 -7 -2 -30 15 -52 39 -40 42 -40 42 -5 113 64 128 125 235 133 235 4 0 24 -18 44 -40z m1855 1 c32 -23 114 -112 406 -441 517 -582 513 -576 522 -678 8 -85 -13 -151 -131 -407 -59 -126 -128 -276 -154 -333 -53 -116 -88 -158 -138 -168 -54 -10 -83 3 -151 69 -92 88 -799 886 -850 959 -52 75 -70 148 -53 217 13 56 322 703 357 750 48 63 129 76 192 32z m-6701 -43 c-3 -52 -3 -52 -171 -155 -92 -57 -172 -103 -178 -103 -6 0 -9 22 -7 52 3 52 3 52 168 155 91 56 171 102 178 103 9 0 12 -14 10 -52z m-707 -9 c18 -18 20 -28 15 -63 -8 -48 -47 -119 -78 -141 -27 -18 -79 -20 -96 -3 -48 48 51 221 131 227 4 1 16 -8 28 -20z m696 -223 c-5 -14 -300 -196 -329 -204 -17 -4 -19 1 -16 49 3 54 3 54 63 90 33 20 110 66 170 103 110 67 110 67 113 20 2 -25 1 -52 -1 -58z m5077 30 c20 -24 36 -50 36 -56 0 -22 -142 -290 -154 -290 -7 0 -30 18 -51 40 -40 41 -40 41 38 195 43 85 82 155 86 155 5 0 25 -20 45 -44z m-3524 -147 c113 -131 113 -131 106 -584 -7 -496 -11 -529 -68 -617 -16 -27 -46 -61 -67 -77 -42 -33 -789 -474 -901 -532 -82 -42 -104 -46 -154 -25 -45 19 -74 59 -82 113 -8 56 14 969 26 1076 12 102 47 173 114 234 58 53 866 543 895 543 10 0 66 -56 131 -131z m3001 84 c48 -43 69 -86 69 -138 0 -76 -39 -106 -99 -76 -87 45 -130 173 -76 226 33 34 58 31 106 -12z m-5013 -45 c17 -17 15 -82 -4 -126 -25 -61 -72 -102 -116 -102 -46 0 -63 25 -53 78 20 110 124 199 173 150z m5687 -56 c39 -44 39 -44 -35 -193 -47 -93 -80 -149 -89 -149 -9 0 -32 19 -52 42 -37 43 -37 43 28 172 72 143 92 178 103 174 3 -2 24 -22 45 -46z m-5225 -99 c0 -27 -4 -53 -8 -59 -10 -16 -324 -204 -339 -204 -9 0 -13 17 -13 50 0 49 1 51 46 78 25 15 103 62 172 104 70 43 130 78 135 78 4 0 7 -21 7 -47z m-716 -5 c48 -68 -36 -228 -120 -228 -28 0 -36 5 -45 28 -23 56 32 175 94 206 43 21 53 20 71 -6z m5148 -25 c81 -83 92 -197 22 -223 -89 -34 -196 154 -133 234 30 38 67 34 111 -11z m1048 -160 c0 -7 -30 -76 -67 -153 -44 -90 -73 -140 -83 -140 -9 0 -33 17 -54 39 -37 38 -37 38 40 195 78 156 78 156 121 114 24 -23 43 -48 43 -55z m-5486 24 c0 -9 -1 -34 -2 -55 -2 -38 -2 -38 -166 -135 -91 -53 -172 -97 -180 -97 -24 0 -22 85 2 105 33 28 327 203 337 201 6 -2 10 -10 9 -19z m4926 -33 c93 -79 99 -234 9 -234 -71 0 -155 135 -129 207 22 58 70 69 120 27z m710 -146 c0 -4 -30 -70 -67 -148 -60 -128 -68 -140 -92 -139 -17 0 -36 13 -55 35 -29 35 -29 35 48 191 77 156 77 156 121 113 25 -25 45 -48 45 -52z m-6109 21 c37 -37 14 -129 -50 -198 -26 -28 -36 -32 -73 -29 -43 3 -43 3 -46 51 -4 59 24 123 74 167 41 35 66 38 95 9z m5294 -122 c47 -46 71 -110 61 -160 -9 -43 -24 -57 -62 -57 -77 0 -156 121 -133 204 19 69 73 75 134 13z m-967 -50 c23 -23 42 -47 42 -53 0 -16 -337 -214 -365 -214 -33 0 -110 68 -95 84 11 11 360 223 370 225 3 1 25 -18 48 -42z m-4580 21 c35 -35 -10 -176 -68 -218 -34 -24 -58 -25 -88 -4 -26 18 -28 44 -6 109 31 89 122 153 162 113z m879 -130 c48 -51 56 -97 49 -303 -3 -99 -11 -335 -16 -525 -11 -355 -19 -428 -51 -492 -46 -91 -42 -88 -756 -506 -213 -125 -247 -142 -286 -142 -38 0 -48 4 -63 27 -28 44 -32 94 -23 287 4 100 15 345 24 546 9 201 21 385 26 409 21 95 105 202 209 265 433 263 731 442 755 452 54 24 98 18 132 -18z m5153 -4 c87 -74 95 -234 12 -234 -94 0 -180 175 -121 246 19 23 74 17 109 -12z m-1296 -56 c20 -23 36 -47 36 -53 0 -16 -345 -215 -374 -215 -26 0 -90 63 -83 83 4 13 355 225 374 226 6 1 28 -18 47 -41z m2114 -2 c36 -19 145 -133 333 -346 84 -96 230 -260 324 -365 202 -225 258 -292 284 -344 28 -54 36 -129 21 -193 -12 -53 -289 -674 -337 -756 -32 -56 -75 -82 -134 -82 -78 0 -40 -37 -599 585 -454 505 -451 501 -451 617 0 82 7 100 205 502 183 373 200 396 282 396 25 0 57 -6 72 -14z m-937 -173 c37 -32 79 -115 79 -159 0 -39 -34 -84 -64 -84 -64 0 -136 96 -136 181 0 39 4 51 26 68 35 28 56 26 95 -6z m-1764 -36 c36 -39 43 -52 43 -87 0 -53 -36 -90 -89 -90 -74 0 -113 13 -147 47 -45 44 -48 106 -8 146 30 30 52 36 114 32 38 -3 50 -10 87 -48z m804 -24 c67 -75 66 -67 7 -103 -29 -18 -107 -64 -173 -102 -103 -60 -125 -69 -155 -64 -39 6 -100 60 -85 75 12 11 368 221 376 221 3 0 16 -12 30 -27z m-1123 -107 c47 -25 74 -62 79 -110 5 -41 2 -48 -26 -77 -31 -30 -35 -31 -92 -26 -33 3 -71 13 -85 22 -52 34 -78 109 -54 155 24 46 122 65 178 36z m1290 -79 c34 -34 40 -46 30 -54 -32 -26 -360 -213 -373 -213 -13 0 -85 76 -85 90 0 8 362 220 375 220 6 0 30 -20 53 -43z m-592 -201 c38 -37 44 -49 44 -85 0 -61 -33 -91 -100 -91 -93 0 -157 46 -167 119 -5 35 -2 44 25 71 27 27 37 30 93 30 60 0 63 -1 105 -44z m816 -43 c21 -20 38 -42 38 -48 0 -7 -74 -55 -165 -108 -195 -115 -225 -121 -271 -61 -23 30 -25 38 -13 45 108 69 347 207 359 208 8 1 31 -16 52 -36z m-2656 -82 c77 -37 389 -210 747 -414 99 -56 194 -117 213 -135 31 -30 34 -39 34 -88 0 -69 -15 -92 -93 -142 -126 -82 -867 -500 -913 -516 -66 -22 -181 -21 -251 4 -30 11 -225 112 -432 226 -608 335 -600 329 -608 407 -6 53 13 96 59 130 48 36 757 450 885 516 84 44 105 49 199 50 75 1 87 -2 160 -38z m1556 -28 c48 -51 61 -78 53 -113 -10 -45 -49 -70 -109 -70 -131 0 -210 118 -128 191 28 25 41 29 90 29 54 0 60 -3 94 -37z m1254 -58 c22 -27 33 -49 28 -54 -25 -24 -351 -201 -370 -201 -24 0 -91 77 -78 90 17 16 359 210 371 210 6 0 28 -20 49 -45z m-602 -176 c58 -46 72 -119 32 -166 -22 -26 -30 -28 -91 -27 -50 1 -73 6 -93 21 -71 53 -80 136 -19 173 45 28 135 27 171 -1z m-294 -154 c69 -36 94 -124 48 -172 -18 -19 -32 -23 -80 -23 -104 0 -158 42 -158 123 0 58 37 86 113 87 26 0 61 -7 77 -15z m1533 -55 c31 -21 582 -625 839 -922 99 -114 120 -167 98 -248 -15 -55 -54 -95 -148 -149 -167 -97 -722 -393 -791 -422 -68 -28 -83 -31 -158 -27 -129 7 -119 -2 -543 467 -322 356 -479 535 -508 575 -21 31 -27 51 -27 91 0 85 22 105 283 253 475 271 684 384 742 403 14 5 59 7 100 6 60 -2 83 -7 113 -27z m-4848 -439 c169 -88 415 -222 703 -384 81 -46 157 -96 174 -116 27 -31 30 -39 26 -88 -3 -38 -11 -60 -29 -79 -25 -27 -138 -95 -424 -257 -458 -258 -445 -252 -591 -252 -102 0 -102 0 -220 60 -150 76 -787 415 -876 467 -133 77 -132 134 4 221 109 70 781 459 841 488 52 24 74 29 140 29 78 0 78 0 252 -89z m2898 65 c29 -13 165 -85 303 -161 137 -76 266 -147 288 -159 21 -12 46 -36 56 -56 10 -19 69 -93 131 -164 189 -215 175 -195 153 -216 -10 -10 -98 -62 -194 -115 -96 -54 -282 -158 -413 -232 -130 -74 -270 -149 -309 -165 -66 -28 -79 -30 -156 -25 -78 5 -93 9 -206 66 -113 57 -224 117 -456 246 -52 28 -156 85 -230 125 -74 41 -152 87 -173 103 -88 68 -89 155 -3 221 65 49 865 503 946 536 69 29 194 27 263 -4z m-1506 -832 c43 -15 215 -106 748 -399 263 -144 275 -155 275 -233 -1 -45 -15 -73 -54 -103 -40 -32 -551 -315 -725 -402 -143 -72 -143 -72 -260 -72 -116 0 -116 0 -296 94 -99 51 -205 108 -235 126 -50 30 -133 73 -459 241 -125 65 -191 118 -191 154 0 38 66 89 261 200 516 293 678 382 719 395 61 19 159 18 217 -1z m2635 -103 c13 -15 111 -125 219 -243 244 -266 288 -298 435 -314 89 -9 165 14 352 107 162 82 162 82 204 63 71 -32 98 -60 98 -103 0 -62 47 -33 -791 -494 -220 -121 -243 -129 -353 -124 -149 8 -110 -9 -581 241 -469 249 -485 261 -485 342 0 34 6 50 28 73 15 17 158 103 317 192 160 89 340 190 400 225 61 35 115 63 122 63 6 1 22 -12 35 -28z m-1177 -702 c36 -10 237 -111 430 -218 39 -21 151 -82 250 -136 303 -164 335 -186 335 -235 0 -38 -52 -73 -350 -236 -682 -372 -611 -339 -730 -339 -105 0 -105 0 -425 169 -668 354 -675 358 -675 405 0 42 1 42 445 291 121 67 270 151 330 186 206 118 286 141 390 113z"
      >
      </path>
    </g>
  </g>
</svg>
